<svg width="474" height="118" viewBox="0 0 474 118" fill="none" xmlns="http://www.w3.org/2000/svg">
<path d="M44.7205 55.261H50.2327V15.2095H66.4879V12.5619H28.4653V15.2095H44.7205V55.261Z" fill="#222222"/>
<path d="M78.5435 55.261V35.8267H87.4867C97.1611 35.8267 105.373 33.2918 105.373 23.9971C105.373 14.7588 97.1611 12.5619 87.4867 12.5619H73.0876V55.261H78.5435ZM78.5435 15.0405H87.0368C94.2363 15.0405 99.2985 17.181 99.2985 24.2225C99.2985 31.2639 94.2363 33.2918 87.0368 33.2918H78.5435V15.0405Z" fill="#222222"/>
<path d="M113.187 55.261H141.31V52.6134H118.642V34.3058H138.047V31.6582H118.642V15.2095H141.31V12.5619H113.187V55.261ZM121.848 6.92875C123.705 6.92875 125.336 5.29515 125.336 3.43621C125.336 1.63361 123.705 0 121.848 0C120.049 0 118.417 1.63361 118.417 3.43621C118.417 5.29515 120.049 6.92875 121.848 6.92875ZM134.841 6.92875C136.698 6.92875 138.329 5.29515 138.329 3.43621C138.329 1.63361 136.698 0 134.841 0C133.042 0 131.41 1.63361 131.41 3.43621C131.41 5.29515 133.042 6.92875 134.841 6.92875Z" fill="#222222"/>
<path d="M144.071 55.261H147.614L164.207 35.7141L179.281 55.261H186.031L167.694 31.5455L183.781 12.5619H180.181L166.007 29.3486L153.014 12.5619H146.321L162.463 33.5171L144.071 55.261Z" fill="#222222"/>
<path d="M197.297 15.2095H218.108V12.5619H191.841V55.261H197.297V15.2095Z" fill="#222222"/>
<path d="M242.893 55.937C255.267 55.937 265.56 47.0366 265.56 33.7988C265.56 20.5046 255.267 11.6606 242.893 11.6606C230.462 11.6606 220.225 20.5046 220.225 33.7988C220.225 47.0366 230.462 55.937 242.893 55.937ZM243.118 53.5711C233.893 53.5711 226.525 45.91 226.525 32.5595C226.525 19.9413 234.343 14.0265 242.668 14.0265C251.836 14.0265 259.204 21.6876 259.204 34.9817C259.204 47.6 251.386 53.5711 243.118 53.5711Z" fill="#222222"/>
<path d="M280.295 55.261V35.8267H289.238C298.912 35.8267 307.124 33.2918 307.124 23.9971C307.124 14.7588 298.912 12.5619 289.238 12.5619H274.839V55.261H280.295ZM280.295 15.0405H288.788C295.988 15.0405 301.05 17.181 301.05 24.2225C301.05 31.2639 295.988 33.2918 288.788 33.2918H280.295V15.0405Z" fill="#222222"/>
<path d="M314.882 55.261H320.338V34.3058H345.311V55.261H350.767V12.5619H345.311V31.6582H320.338V12.5619H314.882V55.261Z" fill="#222222"/>
<path d="M392.756 55.261H398.605L380.325 12.2239H375.713L357.545 55.261H360.695L367.445 39.2066H385.95L392.756 55.261ZM368.57 36.559L376.669 17.4064L384.825 36.559H368.57Z" fill="#222222"/>
<path d="M407.317 55.261L423.797 35.883H429.028V55.261H434.484V12.5619H422.785C412.66 12.5619 405.292 15.4911 405.292 23.7718C405.292 30.3062 410.073 34.1368 417.779 35.0944L400.624 55.261H407.317ZM429.028 33.4045H423.46C416.148 33.4045 411.367 30.7569 411.367 24.2225C411.367 17.688 416.148 15.0405 423.516 15.0405H429.028V33.4045Z" fill="#222222"/>
<path d="M3.42482 80.4834L20.1863 107.804H22.4361L39.1413 80.4834V116.873H44.5973V74.1742H39.5913L22.9424 101.72L6.12465 74.1742H0.5V116.873H3.42482V80.4834Z" fill="#222222"/>
<path d="M86.6134 116.873H92.463L74.1829 73.8363H69.5707L51.4031 116.873H54.5529L61.3025 100.819H79.8075L86.6134 116.873ZM62.4274 98.1714L70.5269 79.0187L78.6826 98.1714H62.4274Z" fill="#222222"/>
<path d="M99.206 116.873H104.662V95.9181H129.635V116.873H135.091V74.1742H129.635V93.2706H104.662V74.1742H99.206V116.873Z" fill="#222222"/>
<path d="M180.905 74.1742H177.699L163.356 101.101L147.663 74.1742H141.701L160.544 106.339C158.35 110.283 156.381 110.959 154.019 112.142C151.994 113.212 151.432 113.888 151.432 115.24C151.432 116.535 152.444 117.549 154.188 117.549C156.888 117.549 158.8 115.521 162.062 109.438L180.905 74.1742Z" fill="#222222"/>
<path d="M202.402 118H208.421V112.423C222.089 111.691 229.907 105.269 229.907 94.4535C229.907 84.9899 222.089 78.9061 208.421 78.1738V72.935H202.402V78.1738C188.903 78.9061 180.916 85.3279 180.916 96.1435C180.916 105.551 188.903 111.747 202.402 112.48V118ZM186.991 94.5662C186.991 84.6519 193.234 81.1593 202.402 80.7087V109.832C192.334 109.1 186.991 104.537 186.991 94.5662ZM223.832 96.0308C223.832 105.889 217.477 109.438 208.421 109.888V80.765C218.433 81.4973 223.832 86.0602 223.832 96.0308Z" fill="#222222"/>
<path d="M267.162 116.873H273.012L254.732 73.8363H250.12L231.952 116.873H235.102L241.852 100.819H260.357L267.162 116.873ZM242.976 98.1714L251.076 79.0187L259.232 98.1714H242.976Z" fill="#222222"/>
<path d="M279.755 116.873H285.211V95.4111L310.184 116.873H317.946L291.117 93.5522L314.684 74.1742H310.634L285.323 94.9605L285.211 95.0732V74.1742H279.755V116.873Z" fill="#222222"/>
<path d="M333.835 116.873H339.347V76.8218H355.603V74.1742H317.58V76.8218H333.835V116.873Z" fill="#222222"/>
<path d="M395.894 74.1742H392.688L378.345 101.101L362.652 74.1742H356.69L375.533 106.339C373.339 110.283 371.37 110.959 369.008 112.142C366.983 113.212 366.421 113.888 366.421 115.24C366.421 116.535 367.433 117.549 369.177 117.549C371.877 117.549 373.789 115.521 377.051 109.438L395.894 74.1742Z" fill="#222222"/>
<path d="M406.822 116.873V97.4391H415.765C425.44 97.4391 433.652 94.9042 433.652 85.6095C433.652 76.3712 425.44 74.1742 415.765 74.1742H401.366V116.873H406.822ZM406.822 76.6528H415.315C422.515 76.6528 427.577 78.7934 427.577 85.8348C427.577 92.8762 422.515 94.9042 415.315 94.9042H406.822V76.6528Z" fill="#222222"/>
<path d="M467.65 116.873H473.5L455.22 73.8363H450.608L432.44 116.873H435.59L442.339 100.819H460.845L467.65 116.873ZM443.464 98.1714L451.564 79.0187L459.72 98.1714H443.464Z" fill="#222222"/>
</svg>
