<svg width="76" height="76" viewBox="0 0 76 76" fill="none" xmlns="http://www.w3.org/2000/svg">
<path fill-rule="evenodd" clip-rule="evenodd" d="M38 5.06641C22.4096 5.06641 11.8984 21.0071 18.0397 35.3369L33.2952 70.9331H42.7047L57.9602 35.3369C64.1016 21.0071 53.5903 5.06641 38 5.06641ZM47 28C47 32.9706 42.9705 37 38 37C33.0294 37 29 32.9706 29 28C29 23.0294 33.0294 19 38 19C42.9705 19 47 23.0294 47 28ZM48 28C48 33.5228 43.5228 38 38 38C32.4771 38 28 33.5228 28 28C28 22.4772 32.4771 18 38 18C43.5228 18 48 22.4772 48 28Z" fill="#F73341"/>
</svg>
