<svg width="15" height="15" viewBox="0 0 15 15" fill="none" xmlns="http://www.w3.org/2000/svg">
<path fill-rule="evenodd" clip-rule="evenodd" d="M11.091 13.3758C11.2721 13.504 11.5055 13.5361 11.7137 13.4573C11.9218 13.378 12.0748 13.2003 12.1209 12.9848C12.6097 10.6876 13.7954 4.87302 14.2404 2.78333C14.2741 2.62583 14.2179 2.46215 14.0941 2.35696C13.9704 2.25177 13.7988 2.2214 13.6458 2.27821C11.2873 3.15121 4.0239 5.87653 1.05509 6.97509C0.866659 7.04484 0.744036 7.22596 0.750224 7.42453C0.756974 7.62365 0.890845 7.79634 1.08378 7.85428C2.41519 8.25253 4.16283 8.80659 4.16283 8.80659C4.16283 8.80659 4.97956 11.2732 5.40537 12.5275C5.4588 12.685 5.58199 12.8088 5.74455 12.8515C5.90654 12.8937 6.07979 12.8493 6.20072 12.7351C6.88471 12.0893 7.94218 11.0909 7.94218 11.0909C7.94218 11.0909 9.95139 12.5641 11.091 13.3758ZM4.898 8.49497L5.84242 11.6101L6.05223 9.6374C6.05223 9.6374 9.70108 6.34621 11.7812 4.47027C11.8419 4.41515 11.8503 4.3229 11.7997 4.25821C11.7497 4.19352 11.6574 4.17834 11.5882 4.22221C9.17741 5.76178 4.898 8.49497 4.898 8.49497Z" fill="#222222"/>
</svg>
