<svg width="15" height="15" viewBox="0 0 15 15" fill="none" xmlns="http://www.w3.org/2000/svg">
<path d="M14.25 3.54882C13.7534 3.769 13.2193 3.91793 12.6591 3.98444C13.2311 3.64176 13.67 3.09956 13.8772 2.45242C13.342 2.7699 12.749 3.00021 12.1184 3.12435C11.6131 2.58627 10.8933 2.25 10.0962 2.25C8.56685 2.25 7.32649 3.49036 7.32649 5.01969C7.32649 5.23678 7.35107 5.44809 7.39858 5.65092C5.09674 5.53546 3.05577 4.43287 1.68962 2.75668C1.45125 3.16566 1.31451 3.64177 1.31451 4.14927C1.31451 5.10996 1.80384 5.95807 2.54661 6.45463C2.09281 6.44037 1.66545 6.31582 1.29221 6.10782C1.292 6.1196 1.292 6.13137 1.292 6.14294C1.292 7.48492 2.24711 8.60424 3.51391 8.85851C3.28174 8.92213 3.03656 8.9558 2.78436 8.9558C2.60548 8.9558 2.43218 8.93865 2.26322 8.90643C2.6156 10.0065 3.63825 10.8074 4.85052 10.8299C3.90244 11.5728 2.70834 12.0155 1.41035 12.0155C1.18728 12.0155 0.966263 12.0025 0.75 11.9767C1.97508 12.7628 3.43129 13.2211 4.99532 13.2211C10.0898 13.2211 12.8758 9.00083 12.8758 5.34047C12.8758 5.22046 12.8731 5.10087 12.8677 4.9823C13.4093 4.59192 13.8788 4.10424 14.25 3.54882Z" fill="#222222"/>
</svg>
