<svg width="15" height="15" viewBox="0 0 15 15" fill="none" xmlns="http://www.w3.org/2000/svg">
<path d="M7.56517 0C5.35417 0 3.56185 1.68874 3.56185 3.77184C3.56185 5.85499 5.35417 7.54383 7.56517 7.54383C9.77616 7.54383 11.5685 5.85499 11.5685 3.77184C11.5685 1.68874 9.77616 0 7.56517 0ZM7.56517 5.33114C6.65122 5.33114 5.91029 4.63299 5.91029 3.77189C5.91029 2.91079 6.65122 2.2127 7.56517 2.2127C8.47912 2.2127 9.22005 2.91079 9.22005 3.77189C9.22005 4.63299 8.47912 5.33114 7.56517 5.33114ZM8.97851 10.6146L11.3977 12.8736C11.8231 13.2738 11.8237 13.9232 11.3989 14.324C10.9742 14.7248 10.2851 14.7255 9.85952 14.3252L7.51086 12.1703L5.37766 14.3113C5.16408 14.52 4.87918 14.625 4.59399 14.625C4.32197 14.625 4.04973 14.5296 3.8385 14.3377C3.40573 13.9446 3.39319 13.2953 3.81049 12.8876L6.10673 10.6266C4.45913 10.3262 3.45907 9.59247 3.40757 9.55355C2.93859 9.19919 2.86325 8.55373 3.23936 8.11181C3.61542 7.66995 4.30043 7.59897 4.76953 7.95328C4.77944 7.96084 5.82544 8.70119 7.5108 8.70227C9.19622 8.70119 10.2206 7.96084 10.2305 7.95328C10.6996 7.59897 11.3846 7.66995 11.7606 8.11181C12.1367 8.55373 12.0614 9.19919 11.5924 9.55355C11.5416 9.59193 10.5812 10.307 8.97851 10.6146Z" fill="#222222"/>
</svg>
