<svg width="15" height="15" viewBox="0 0 15 15" fill="none" xmlns="http://www.w3.org/2000/svg">
<path fill-rule="evenodd" clip-rule="evenodd" d="M14.6558 4.33801C14.76 3.9991 14.6558 3.75 14.1596 3.75H12.5185C12.1013 3.75 11.9089 3.96516 11.8046 4.20238C11.8046 4.20238 10.9701 6.18535 9.78791 7.47336C9.40544 7.84621 9.23161 7.96481 9.02297 7.96481C8.91864 7.96481 8.76767 7.8462 8.76767 7.50729V4.33801C8.76767 3.93123 8.64659 3.75 8.29881 3.75H5.72009C5.45928 3.75 5.30245 3.93877 5.30245 4.11771C5.30245 4.50324 5.89356 4.59225 5.95451 5.67687V8.03269C5.95451 8.54917 5.85887 8.64287 5.65023 8.64287C5.09392 8.64287 3.74068 6.65098 2.93811 4.37195C2.78081 3.92894 2.62303 3.75 2.20364 3.75H0.562631C0.0937716 3.75 0 3.96516 0 4.20238C0 4.62608 0.556302 6.72766 2.59033 9.50717C3.94639 11.4052 5.85699 12.4342 7.59552 12.4342C8.63862 12.4342 8.76767 12.2057 8.76767 11.812V10.3774C8.76767 9.92036 8.86648 9.82918 9.1968 9.82918C9.44013 9.82918 9.85742 9.94778 10.831 10.8629C11.9437 11.9477 12.1272 12.4342 12.753 12.4342H14.394C14.8628 12.4342 15.0973 12.2057 14.962 11.7547C14.8141 11.3051 14.2827 10.653 13.5779 9.88002C13.1955 9.4393 12.6217 8.96487 12.4479 8.72754C12.2044 8.42245 12.274 8.28681 12.4479 8.01566C12.4479 8.01566 14.4472 5.27019 14.6558 4.33801Z" fill="#222222"/>
</svg>
