<svg width="20" height="20" viewBox="0 0 20 20" fill="none" xmlns="http://www.w3.org/2000/svg">
<path d="M18.2838 0H1.71615C0.768666 0 0 0.768666 0 1.71615V18.2838C0 19.232 0.768666 20 1.71615 20H18.2838C19.232 20 20 19.2313 20 18.2838V1.71615C20 0.767999 19.2313 0 18.2838 0ZM14.7628 6.77053C14.3731 9.32141 13.9774 11.8716 13.5744 14.4198C13.449 15.2139 13.0386 15.442 12.3007 15.1278C11.9877 14.9943 11.6921 14.8108 11.4086 14.62C10.5351 14.0328 9.66171 13.4457 8.8083 12.8305C8.25849 12.4341 8.2685 12.1452 8.75892 11.6808C9.71575 10.7733 10.6706 9.86455 11.6161 8.94575C11.7822 8.78428 11.8976 8.57076 12.0371 8.38193C11.9991 8.33456 11.961 8.28718 11.9237 8.23981C11.6848 8.35457 11.4292 8.44465 11.2097 8.58944C10.2102 9.24668 9.21999 9.9186 8.22713 10.5858C7.85948 10.8327 7.48382 11.0696 7.12618 11.3312C6.75919 11.6007 6.34817 11.6855 5.92847 11.5747C5.20117 11.3825 4.48255 11.155 3.76993 10.9135C3.4243 10.796 3.39227 10.4737 3.68586 10.2469C3.82398 10.1401 3.98679 10.0587 4.14893 9.99199C7.30967 8.68019 10.4717 7.37172 13.6331 6.06259C13.6845 6.04124 13.7352 6.01922 13.7873 6.00053C14.5152 5.73964 14.8782 6.01588 14.7628 6.7692V6.77053Z" fill="#020202"/>
</svg>
